<?xml version="1.0" encoding="utf-8"?>
<!-- Svg Vector Icons : http://www.onlinewebfonts.com/icon -->
<!DOCTYPE svg PUBLIC "-//W3C//DTD SVG 1.1//EN" "http://www.w3.org/Graphics/SVG/1.1/DTD/svg11.dtd">
<svg version="1.1" xmlns="http://www.w3.org/2000/svg" xmlns:xlink="http://www.w3.org/1999/xlink" x="0px" y="0px" viewBox="0 0 1000 1000" enable-background="new 0 0 1000 1000" xml:space="preserve">
<metadata> Svg Vector Icons : http://www.onlinewebfonts.com/icon </metadata>
<g><path d="M903,220H710v-87.4c0-29-23.1-52.6-52.1-52.6H342.7c-29,0-52.7,23.6-52.7,52.6V220H97.5C49.4,220,10,259.5,10,307.7v207.6v70V833c0,48.2,39.4,87,87.5,87H903c48.2,0,87-38.9,87-87V585.3v-70V307.7C990,259.5,951.1,220,903,220z M920,833c0,9.5-7.5,17-17,17H97.5C88,850,80,842.5,80,833V585.3h227.5v17.5c0,57.9,47.3,105,105.2,105h175.1c57.9,0,104.7-47,104.7-105v-17.5H920V833z M377.5,585.3h245v17.5c0,19.2-15.5,35-34.7,35H412.7c-19.2,0-35.2-15.8-35.2-35V585.3z M622.8,515.3H377.7H80V307.7c0-9.5,8-17.7,17.5-17.7h192.6H360v-69.9V150h280v70.1V290h70.4H903c9.5,0,17,8.2,17,17.7v207.6H622.8z"/><path d="M360,220h280v70H360V220z"/></g>
</svg>